<?xml version="1.0" standalone="no"?>
<!DOCTYPE svg PUBLIC "-//W3C//DTD SVG 20010904//EN"
 "http://www.w3.org/TR/2001/REC-SVG-20010904/DTD/svg10.dtd">
<svg version="1.0" xmlns="http://www.w3.org/2000/svg"
 width="200.000000pt" height="200.000000pt" viewBox="0 0 512.000000 512.000000"
 preserveAspectRatio="xMidYMid meet">

<g transform="translate(0.000000,512.000000) scale(0.100000,-0.100000)"
fill="red" stroke="none">
<path d="M1993 4489 c-751 -18 -1273 -47 -1395 -78 -137 -35 -290 -132 -364
-231 -104 -141 -163 -349 -195 -695 -66 -720 -41 -1821 50 -2185 71 -284 150
-408 328 -516 187 -112 497 -139 1838 -160 845 -12 2065 34 2269 86 150 38
297 138 376 253 49 73 94 188 131 337 65 260 102 985 81 1617 -22 668 -66 962
-175 1178 -77 152 -228 270 -403 315 -126 33 -628 60 -1464 80 -442 11 -606
11 -1077 -1z m796 -1529 c456 -267 827 -488 823 -492 -9 -9 -1634 -915 -1656
-924 -15 -6 -16 73 -16 951 0 580 4 955 9 953 5 -1 383 -221 840 -488z"/>
</g>
</svg>
